# xmcd
#
# Track frame offsets: 
#        150
#        25971
#        46249
#        61150
#        73153
#        98224
#        117755
#        143026
#        165646
#        185847
#        202196
#        227532
#
# Disc length: 3284 seconds
#
# Revision: 0
# Processed by: cddbd v1.5.2PL0 Copyright (c) Steve Scherf et al.
# Submitted via: ExactAudioCopy v0.99pb4
#
DISCID=a90cd20c
DTITLE=Various Artist - 12 Bars To Heaven
DYEAR=2008
DGENRE=Blues Rock
TTITLE0=Chuck Leavell - In The Wee Wee Hours
TTITLE1=Pat Travers - House Of The Holy
TTITLE2=Coal - Unlock My Love
TTITLE3=Rudy Rotta - Just Another Man
TTITLE4=Mark Selby - Baby, I Do
TTITLE5=Henrik Freischlader - The Blues
TTITLE6=Greg Koch - Mrs. Buckley
TTITLE7=Steve Fister - Foolin Me
TTITLE8=John Campbelljohn - Sydney Steel
TTITLE9=The Blues Band - I Don't Need No Doctor
TTITLE10=Anders Osborn - Back On Dumaine
TTITLE11=Al DeLoner - Wintersong
EXTD=
EXTT0=
EXTT1=
EXTT2=
EXTT3=
EXTT4=
EXTT5=
EXTT6=
EXTT7=
EXTT8=
EXTT9=
EXTT10=
EXTT11=
PLAYORDER=
